<svg xmlns="http://www.w3.org/2000/svg" width="780" height="340" font-family="sans-serif">
<rect width="780" height="340" fill="#111"/>
<text x="46" y="24" fill="#fff" font-size="17" font-weight="bold">HIGH — Strong Crosswinds</text>
<text x="46" y="44" fill="#bbb" font-size="12">2026-09-19T16:00:00.000Z · lat 52.18895, lon 4.549666 · season autumn · wind 29.2 km/h, gust 56.9 km/h</text>
<line x1="46" y1="282.94" x2="766" y2="282.94" stroke="#333"/>
<text x="41" y="286.94" fill="#4caf50" font-size="10" text-anchor="end">SAFE</text>
<line x1="46" y1="255.88" x2="766" y2="255.88" stroke="#333"/>
<text x="41" y="259.88" fill="#ffeb3b" font-size="10" text-anchor="end">SLIGHT</text>
<line x1="46" y1="228.82" x2="766" y2="228.82" stroke="#333"/>
<text x="41" y="232.82" fill="#ffa500" font-size="10" text-anchor="end">MODERATE</text>
<line x1="46" y1="201.76" x2="766" y2="201.76" stroke="#333"/>
<text x="41" y="205.76" fill="#ff4500" font-size="10" text-anchor="end">HIGH</text>
<line x1="46" y1="174.7" x2="766" y2="174.7" stroke="#333"/>
<text x="41" y="178.7" fill="#ff0000" font-size="10" text-anchor="end">CRITICAL</text>
<rect x="57.4" y="91.1" width="37.2" height="108.2" fill="#ff4500" fill-opacity="1"/>
<line x1="68.0" y1="129.9" x2="84.0" y2="129.9" stroke="#fff" stroke-width="2"/>
<circle cx="76.0" cy="64.0" r="3.2" fill="#fff"/>
<text x="76.0" y="324" fill="#999" font-size="10" text-anchor="middle">now</text>
<rect x="117.4" y="91.1" width="37.2" height="108.2" fill="#ff4500" fill-opacity="0.75"/>
<line x1="128.0" y1="129.9" x2="144.0" y2="129.9" stroke="#fff" stroke-width="2"/>
<circle cx="136.0" cy="73.5" r="3.2" fill="#fff"/>
<text x="136.0" y="324" fill="#999" font-size="10" text-anchor="middle">19:00</text>
<rect x="177.4" y="91.1" width="37.2" height="108.2" fill="#ff4500" fill-opacity="0.75"/>
<line x1="188.0" y1="130.8" x2="204.0" y2="130.8" stroke="#fff" stroke-width="2"/>
<circle cx="196.0" cy="76.1" r="3.2" fill="#fff"/>
<text x="196.0" y="324" fill="#999" font-size="10" text-anchor="middle">20:00</text>
<rect x="237.4" y="91.1" width="37.2" height="108.2" fill="#ff4500" fill-opacity="0.75"/>
<line x1="248.0" y1="132.5" x2="264.0" y2="132.5" stroke="#fff" stroke-width="2"/>
<circle cx="256.0" cy="77.8" r="3.2" fill="#fff"/>
<text x="256.0" y="324" fill="#999" font-size="10" text-anchor="middle">21:00</text>
<rect x="297.4" y="91.1" width="37.2" height="108.2" fill="#ff4500" fill-opacity="0.75"/>
<line x1="308.0" y1="132.5" x2="324.0" y2="132.5" stroke="#fff" stroke-width="2"/>
<circle cx="316.0" cy="78.5" r="3.2" fill="#fff"/>
<text x="316.0" y="324" fill="#999" font-size="10" text-anchor="middle">22:00</text>
<rect x="357.4" y="91.1" width="37.2" height="108.2" fill="#ff4500" fill-opacity="0.75"/>
<line x1="368.0" y1="131.8" x2="384.0" y2="131.8" stroke="#fff" stroke-width="2"/>
<circle cx="376.0" cy="76.1" r="3.2" fill="#fff"/>
<text x="376.0" y="324" fill="#999" font-size="10" text-anchor="middle">23:00</text>
<rect x="417.4" y="91.1" width="37.2" height="108.2" fill="#ff4500" fill-opacity="0.75"/>
<line x1="428.0" y1="132.5" x2="444.0" y2="132.5" stroke="#fff" stroke-width="2"/>
<circle cx="436.0" cy="78.5" r="3.2" fill="#fff"/>
<text x="436.0" y="324" fill="#999" font-size="10" text-anchor="middle">00:00</text>
<rect x="477.4" y="91.1" width="37.2" height="108.2" fill="#ff4500" fill-opacity="0.75"/>
<line x1="488.0" y1="130.8" x2="504.0" y2="130.8" stroke="#fff" stroke-width="2"/>
<circle cx="496.0" cy="76.8" r="3.2" fill="#fff"/>
<text x="496.0" y="324" fill="#999" font-size="10" text-anchor="middle">01:00</text>
<rect x="537.4" y="91.1" width="37.2" height="108.2" fill="#ff4500" fill-opacity="0.75"/>
<line x1="548.0" y1="132.5" x2="564.0" y2="132.5" stroke="#fff" stroke-width="2"/>
<circle cx="556.0" cy="76.1" r="3.2" fill="#fff"/>
<text x="556.0" y="324" fill="#999" font-size="10" text-anchor="middle">02:00</text>
<rect x="597.4" y="91.1" width="37.2" height="108.2" fill="#ff4500" fill-opacity="0.75"/>
<line x1="608.0" y1="142.0" x2="624.0" y2="142.0" stroke="#fff" stroke-width="2"/>
<circle cx="616.0" cy="81.1" r="3.2" fill="#fff"/>
<text x="616.0" y="324" fill="#999" font-size="10" text-anchor="middle">03:00</text>
<rect x="657.4" y="118.1" width="37.2" height="81.2" fill="#ffa500" fill-opacity="0.75"/>
<line x1="668.0" y1="153.2" x2="684.0" y2="153.2" stroke="#fff" stroke-width="2"/>
<circle cx="676.0" cy="97.5" r="3.2" fill="#fff"/>
<text x="676.0" y="324" fill="#999" font-size="10" text-anchor="middle">04:00</text>
<rect x="717.4" y="172.2" width="37.2" height="27.1" fill="#4caf50" fill-opacity="0.75"/>
<line x1="728.0" y1="158.2" x2="744.0" y2="158.2" stroke="#fff" stroke-width="2"/>
<circle cx="736.0" cy="118.9" r="3.2" fill="#fff"/>
<text x="736.0" y="324" fill="#999" font-size="10" text-anchor="middle">05:00</text>
<text x="46" y="328" fill="#bbb" font-size="11">Risk bar color = level · <tspan fill="#3377ff">blue = rain mm/h</tspan> · <tspan fill="#fff">— sustained wind, ● gust</tspan> · advice: Beware Of Open Fields And Bridges; Hold Handlebars Firmly</text>
</svg>
